<?xml version="1.0" ?><svg id="Capa_1" style="enable-background:new 0 0 113.4 113.4;" version="1.1" viewBox="0 0 113.4 113.4" xml:space="preserve" xmlns="http://www.w3.org/2000/svg" xmlns:xlink="http://www.w3.org/1999/xlink"><style type="text/css">
	.st0{fill:#FFFFFF;stroke:#000000;stroke-linecap:round;stroke-linejoin:round;stroke-miterlimit:10;}
	.st1{fill:#B67F6F;stroke:#000000;stroke-linecap:round;stroke-linejoin:round;stroke-miterlimit:10;}
	.st2{fill:#EEBFB2;stroke:#000000;stroke-linecap:round;stroke-linejoin:round;stroke-miterlimit:10;}
	.st3{fill:none;stroke:#000000;stroke-linecap:round;stroke-linejoin:round;stroke-miterlimit:10;}
</style><g><g><path class="st2" d="M65.3,76.1H48c-1,0-1.7-0.8-1.7-1.7v-1.4c0-1,0.8-1.7,1.7-1.7h17.3c1,0,1.7,0.8,1.7,1.7v1.4    C67.1,75.3,66.3,76.1,65.3,76.1z"/><path class="st2" d="M64.2,81h-15c-1,0-1.7-0.8-1.7-1.7v-1.4c0-1,0.8-1.7,1.7-1.7h15c1,0,1.7,0.8,1.7,1.7v1.4    C65.9,80.2,65.1,81,64.2,81z"/><path class="st2" d="M63,85.8H50.4c-1,0-1.7-0.8-1.7-1.7v-1.4c0-1,0.8-1.7,1.7-1.7H63c1,0,1.7,0.8,1.7,1.7v1.4    C64.7,85.1,63.9,85.8,63,85.8z"/><path class="st1" d="M54.8,85.8h3.8c1.3,0,2.4,0,2.4,1v0c0,1.1-1.1,1.9-2.4,1.9h-3.8c-1.3,0-2.4-0.9-2.4-1.9v0    C52.4,85.8,53.5,85.8,54.8,85.8z"/><path class="st0" d="M70.7,30.4c-7.7-7.7-20.2-7.7-27.9,0C35.2,37.9,35,50,42.2,57.8h0c0,0,5.9,6.3,5.9,13.5h17.2    c0-7.2,5.9-13.5,5.9-13.5h0C78.3,50,78.2,37.9,70.7,30.4z"/></g><path class="st0" d="M59.9,71.2c0,0,0.6-16.4,4.8-16.4"/><path class="st0" d="M53.5,71.2c0,0-0.6-16.4-4.8-16.4"/><line class="st0" x1="56.7" x2="56.7" y1="71.2" y2="54.2"/></g></svg>